<svg xmlns="http://www.w3.org/2000/svg" xmlns:svg="http://www.w3.org/2000/svg" id="SVGRoot" width="24" height="24" version="1.1" viewBox="0 0 24 24"><g id="layer1"><path id="path388" style="font-variation-settings:normal;opacity:1;vector-effect:none;fill:none;fill-opacity:1;stroke:#000;stroke-width:1;stroke-linecap:round;stroke-linejoin:round;stroke-miterlimit:4;stroke-dasharray:none;stroke-dashoffset:0;stroke-opacity:1;stop-color:#000;stop-opacity:1" d="m 5.9304546,13.931458 c 0,0 -0.048796,-1.420514 0.565038,-2.959378 C 6.7075661,10.440417 7.3075942,9.9358085 7.5945391,9.4145716 8.5517126,7.6758607 9.993845,7.3539054 10.536874,7.9659225 11.024245,8.51521 10.391088,9.8498727 9.912916,10.726607 7.3625117,14.113009 9.444294,16.261305 8.4651274,18.700128 8.175945,19.40011 6.7693889,21.564511 6.9327695,22.083885 L 3.0081033,20.500045 C 4.9077611,16.509572 3.8310371,14.796278 3.9397617,10.865952 3.9593258,10.15872 5.0282555,6.7502489 5.6235089,6.2146826 6.2918147,5.613389 9.542544,1.7303829 10.885374,2.6630235 12.137392,3.5325917 9.384277,5.3547065 8.8102478,6.1386521 7.9720444,7.0538304 7.3432427,8.4237727 7.2364215,9.6981674"/><path id="path24787" style="fill:none;stroke:#000;stroke-linecap:round;stroke-linejoin:round;stop-color:#000" d="M 7.8864059,8.8597293 C 8.9423094,7.1439635 10.837561,6 13,6 c 3.313708,0 6,2.6862915 6,6 0,3.313708 -2.686292,6 -6,6 -1.639994,0 -3.126311,-0.657975 -4.2093661,-1.724342"/><path style="font-variation-settings:normal;opacity:1;vector-effect:none;fill:none;fill-opacity:1;stroke:#000;stroke-width:1;stroke-linecap:butt;stroke-linejoin:miter;stroke-miterlimit:4;stroke-dasharray:none;stroke-dashoffset:0;stroke-opacity:1;stop-color:#000;stop-opacity:1" id="path25523" d="M 12,12 H 22.5"/><path style="font-variation-settings:normal;opacity:1;vector-effect:none;fill:none;fill-opacity:1;stroke:#000;stroke-width:1;stroke-linecap:butt;stroke-linejoin:miter;stroke-miterlimit:4;stroke-dasharray:none;stroke-dashoffset:0;stroke-opacity:1;stop-color:#000;stop-opacity:1" id="path25525" d="m 20,9 3,3 -3,3"/></g></svg>